# xmcd CD database file generated by LOLA_Freedb v0.9beta0
# 
# Track frame offsets:
#      150
#      14337
#      29352
#      48297
#      57615
#      67490
#      81555
#      93040
#      106425
#      120077
#      133237
#      149617
#      156092
#      166262
#      176487
#      187642
#      202185
#      210880
#      224207
#      235125
# 
# Disc length: 3317 seconds
# 
# Revision: 4 
# Processed by: cddbd v1.5.1PL2 Copyright (c) Steve Scherf et al.
# Submitted via: LOLA_Freedb v0.9beta0
# 
DISCID=260cf314
DTITLE=Various Artist - C'est Noel
DYEAR=1996
DGENRE=Christmas
TTITLE0=Tino Rossi - Petit Papa Noel
TTITLE1=Edith Piaf - Noel De La Rue
TTITLE2=Adamo - Noel Sur Les Milandes
TTITLE3=Charles Trenet - Chanson Pour Noel
TTITLE4=Tino Rossi - Mon Beau Sapin
TTITLE5=Carlos - Le Pere Noel A Disparu
TTITLE6=Les Futeruzes - Que Dale Pour Noel
TTITLE7=Enrico Macias - Souviens-Toi Des Noels De La-Bas
TTITLE8=Les Compagnons De La Chanson - A Noel
TTITLE9=Tino Rossi - Il Est Né Le Divin Enfant
TTITLE10=Charles Trenet - La Plus Belle Nuit
TTITLE11=Richard Anthony - Dis-Moi Pourquoi Noel
TTITLE12=Les Petits Chanteurs A La Croix De Bois - Le Voyage A Bethleem
TTITLE13=Tino Rossi - La Marche Des Rois Mages
TTITLE14=Luis Mariano - Les Anges Dans Nos Campagnes
TTITLE15=Tino Rossi - Noel Des Petits Santons
TTITLE16=Richard Anthony - C'est A Bethleem
TTITLE17=Adamo - Tombe La Neige
TTITLE18=Mathe Althery - Viv' Le Vent
TTITLE19=Il Etait Une Fois - Douce Nuit, Sainte Nuit
EXTD=
EXTT0=
EXTT1=
EXTT2=
EXTT3=
EXTT4=
EXTT5=
EXTT6=
EXTT7=
EXTT8=
EXTT9=
EXTT10=
EXTT11=
EXTT12=
EXTT13=
EXTT14=
EXTT15=
EXTT16=
EXTT17=
EXTT18=
EXTT19=
PLAYORDER=
